<?xml version="1.0" encoding="UTF-8"?>
<svg xmlns="http://www.w3.org/2000/svg" viewBox="0 0 290 50">
  <title>Element 1</title>
  <path d="M71.19,29.59H84.7L77.91,11.42Zm13.89.24H70.84l7.07-19.14ZM189.43,7.76c-4.75,0-8.37,1.82-10.72,5.37A19.49,19.49,0,0,0,176,23.86a25.27,25.27,0,0,0,.83,6.32c1.91,6.6,6,9.82,12.68,9.82,4.35,0,7.73-1.54,10.1-4.55S203,28.69,203,23.89a22.55,22.55,0,0,0-.93-6.32c-1.89-6.6-6-9.81-12.65-9.81m.09,32.5c-6.74,0-11-3.27-12.91-10a24.26,24.26,0,0,1-.85-6.38A19.77,19.77,0,0,1,178.55,13c2.39-3.64,6-5.49,10.9-5.49,6.74,0,11,3.27,12.92,10a23.23,23.23,0,0,1,.92,6.39c0,4.87-1.16,8.8-3.48,11.73s-5.86,4.64-10.29,4.64M32.12,46.59H42.29V1.16H32.12V19.42H10.43V1.16H.26V46.59H10.43V26.4H32.12Zm10.43.26H31.88V26.66H10.67V46.85H0V.9H10.67V19.16H31.88V.9H42.55ZM91,46.59h10.45L83.11,1.16H72.71L54.49,46.62H65l3.38-9.51H87.58Zm10.8.26h-11l-3.39-9.5H68.5l-3.39,9.5h-11L72.54.92H83.28Zm11.83-.26h10.17V1.16H113.6Zm30.37,0h12.91l-21.5-24.4,20.11-21H143.88L124.13,22.52Zm13.48.26h-13.6l0,0L124,22.78V46.85H113.36V.9H124V22.28L143.78.9h12.3L135.72,22.19Zm113.74-.26h9.11V1.16H266.18l-12,36.59L242.39,1.16H228.12V46.59h9.11V10.26l11.64,36.33h10.55l11.77-36.33V46.59Zm9.35.26h-9.61v-35l-11.35,35h-10.9l-11.21-35v35h-9.61V.9h14.72l0,.09,11.61,35.95L266,.92h14.55ZM189.52.26A28.52,28.52,0,0,0,177.84,2.7c-8.4,3.83-12.65,11-12.65,21.19,0,10.62,4.54,17.86,13.48,21.5a30.72,30.72,0,0,0,10.76,2.13,26.55,26.55,0,0,0,12.2-2.7c8.09-3.9,12.21-10.93,12.21-20.93,0-7.66-2.41-13.51-7.4-17.84C202,2.2,196.36.26,189.52.26m.34,47.49h-.43a30.89,30.89,0,0,1-10.86-2.15c-9.06-3.69-13.64-11-13.64-21.74,0-10.33,4.3-17.52,12.79-21.4A28.68,28.68,0,0,1,189.5,0c6.91,0,12.65,2,17.1,5.87,5,4.32,7.47,10.38,7.47,18,0,10.1-4.13,17.22-12.32,21.14a26.26,26.26,0,0,1-11.89,2.72M10.55,19.28H32V1H42.43v45.7H32V26.54H10.55v20.2H.12V1H10.55ZM72.64,1H83.21l18.4,45.7H90.87l-3.38-9.51H68.4L65,46.74H54.28ZM84.89,29.71l-7-18.64L71,29.71ZM143.83,1h12L135.55,22.21l21.62,24.53H143.9L124,22.54ZM113.48,1h10.43v45.7H113.48Zm51.59,22.85c0-10.29,4.21-17.41,12.72-21.29A28.46,28.46,0,0,1,189.52.14c6.91,0,12.56,1.94,17,5.82,5,4.33,7.43,10.29,7.43,17.93,0,10-4.07,17.08-12.26,21a26.46,26.46,0,0,1-12.25,2.72,31.51,31.51,0,0,1-10.81-2.13c-9-3.69-13.57-10.95-13.57-21.62m10.81,0a23.63,23.63,0,0,0,.85,6.34c1.91,6.6,6.12,9.91,12.79,9.91,4.38,0,7.83-1.56,10.2-4.59s3.45-6.79,3.45-11.66a23,23,0,0,0-.92-6.34c-1.92-6.6-6.13-9.91-12.8-9.91q-7.23,0-10.81,5.44a19.56,19.56,0,0,0-2.76,10.81M228,1h14.48l11.73,36.31L266.06,1H280.4v45.7h-9.35V11.07L259.49,46.74H248.77L237.35,11.07V46.74H228V1Z" style="fill:#fff" />
</svg>